<?xml version="1.0" encoding="UTF-8"?>
<svg width="60px" height="26px" viewBox="0 0 60 26" version="1.1" xmlns="http://www.w3.org/2000/svg" xmlns:xlink="http://www.w3.org/1999/xlink">
    <g id="Page-1" stroke="none" stroke-width="1" fill="none" fill-rule="evenodd">
        <g id="Group">
            <polygon id="Fill-1" fill="#404DB2" points="44.9822432 1.04245482e-05 44.9822432 0.000114307368 37.5210826 12.9478612 37.5150592 12.9375768 30 26.0000104 49.9960559 26.0000104 59.9885798 26.0000104 49.1970279 7.30276492 44.9822432 0.000114307368"></polygon>
            <polygon id="Fill-2" fill="#FF4B3C" points="15.0005626 0.0100870581 14.9948508 0.000114307368 0.0129191844 25.9775717 4.168534e-05 26.0000104 9.9926694 26.0000104 30.0253846 26.0000104 30.0371198 26.0000104 22.8508522 13.5895454 15.0034704 0.0151773163 15.0064821 1.04245482e-05"></polygon>
            <polygon id="Fill-9" fill="#12D11C" points="22.6244163 13.0625587 30.1158274 26.000073 37.6309167 12.9376911 30.1158274 7.29718395e-05"></polygon>
            <polygon id="Fill-5" fill="#34D8AF" points="30.1419401 26 45.1361071 26 37.6329726 13"></polygon>
            <polygon id="Fill-8" fill="#FFCC42" points="15.1311845 26 30.150265 26 22.9409478 13.529023 22.6344636 13"></polygon>
        </g>
    </g>
</svg>